<svg xmlns="http://www.w3.org/2000/svg" fill="none" viewBox="16 30 148.36 20.95"><path d="M56.0751 35.4297C56.4064 35.4297 56.7072 35.4483 56.9798 35.4877V38.8352H56.0445C54.6416 38.8352 53.5654 39.1857 52.8157 39.8891C52.0661 40.5925 51.6901 41.6255 51.6901 42.9928V50.556H48.0078V35.6595H51.5726V38.3152C52.4092 36.3908 53.9108 35.4297 56.0727 35.4297H56.0751Z" fill="#0B0B0B"></path><path d="M63.9595 50.9526C59.5558 50.9526 57.2575 49.2394 57.0625 45.8153H60.6555C60.7519 46.7392 61.0597 47.3939 61.5767 47.7792C62.0937 48.1646 62.9067 48.3572 64.0159 48.3572C66.0039 48.3572 66.9956 47.7606 66.9956 46.5674C66.9956 46.0289 66.7817 45.6157 66.3517 45.3255C65.924 45.0376 65.1532 44.7962 64.0441 44.6035L62.3193 44.3157C59.027 43.7771 57.3821 42.2751 57.3821 39.8121C57.3821 38.4077 57.9273 37.305 59.0176 36.5064C60.108 35.7079 61.6472 35.3086 63.6352 35.3086C67.9402 35.3086 70.1609 36.9916 70.2972 40.36H66.8193C66.7794 39.4755 66.4974 38.8441 65.971 38.4704C65.4446 38.0943 64.6668 37.9086 63.6329 37.9086C61.8798 37.9086 61.0033 38.4866 61.0033 39.6403C61.0033 40.1418 61.1983 40.5318 61.5884 40.8103C61.9785 41.0889 62.62 41.3071 63.5177 41.4603L65.4164 41.7482C67.247 42.0755 68.5771 42.5955 69.4042 43.3059C70.2314 44.0185 70.645 45.0098 70.645 46.2796C70.645 47.7815 70.0599 48.9353 68.892 49.7431C67.7241 50.551 66.0768 50.9549 63.9548 50.9549L63.9595 50.9526Z" fill="#0B0B0B"></path><path d="M86.2336 43.3616V44.2275H74.954C75.0903 45.4973 75.4945 46.456 76.1666 47.099C76.8387 47.7444 77.7387 48.0671 78.869 48.0671C80.5445 48.0671 81.6936 47.3544 82.3163 45.9314H85.8529C85.4628 47.4519 84.6451 48.659 83.3973 49.5528C82.1495 50.4465 80.6314 50.8945 78.8384 50.8945C76.599 50.8945 74.7872 50.1819 73.4031 48.7588C72.019 47.3358 71.3281 45.4485 71.3281 43.1016C71.3281 40.7546 72.0096 38.8673 73.3726 37.4443C74.7543 36.0213 76.5567 35.3086 78.7773 35.3086C80.998 35.3086 82.8685 36.0491 84.2127 37.5302C85.5568 39.0112 86.2289 40.9566 86.2289 43.3616H86.2336ZM78.7538 38.1361C76.5919 38.1361 75.3347 39.32 74.9846 41.6855H82.5537C82.3962 40.5875 81.9873 39.7216 81.327 39.0878C80.6643 38.4518 79.8066 38.1361 78.7562 38.1361H78.7538Z" fill="#0B0B0B"></path><path d="M96.2537 35.3086C97.8893 35.3086 99.1794 35.7752 100.126 36.7084C101.071 37.6416 101.543 38.9648 101.543 40.678V50.551H97.8611V41.2839C97.8611 39.3989 96.9164 38.4541 95.0271 38.4541C94.0918 38.4541 93.2975 38.7861 92.6466 39.45C91.9933 40.1139 91.6667 41.0332 91.6667 42.2078V50.551H87.9844V35.6545H91.5492V37.7902C92.6983 36.135 94.2657 35.3086 96.2537 35.3086Z" fill="#0B0B0B"></path><path d="M117.463 50.5487H113.78C113.604 50.2399 113.468 49.634 113.372 48.731C112.359 50.1749 110.742 50.8969 108.521 50.8969C106.865 50.8969 105.546 50.5022 104.562 49.7129C103.577 48.9237 103.086 47.828 103.086 46.4212C103.086 43.7075 105.015 42.1591 108.871 41.7737L111.151 41.5718C111.91 41.4766 112.455 41.2978 112.786 41.0378C113.118 40.7778 113.282 40.3878 113.282 39.8678C113.282 39.2318 113.073 38.7675 112.655 38.468C112.236 38.1709 111.529 38.02 110.538 38.02C109.466 38.02 108.698 38.1987 108.23 38.5539C107.762 38.9114 107.49 39.522 107.412 40.3878H103.789C104.002 37.0009 106.263 35.3086 110.568 35.3086C114.873 35.3086 116.849 36.8013 116.849 39.782V47.7189C116.849 49.0281 117.054 49.9706 117.463 50.5487ZM109.398 48.2969C110.547 48.2969 111.482 47.9835 112.204 47.359C112.925 46.7346 113.285 45.8339 113.285 44.6592V43.3035C112.934 43.6123 112.359 43.8142 111.56 43.9094L109.572 44.1416C108.596 44.2576 107.901 44.4828 107.483 44.8194C107.064 45.156 106.855 45.6412 106.855 46.2773C106.855 46.9133 107.074 47.4078 107.513 47.763C107.953 48.1205 108.58 48.2969 109.398 48.2969Z" fill="#0B0B0B"></path><path d="M122.643 50.5514H118.961V30H122.643V50.5514Z" fill="#0B0B0B"></path><path d="M138.558 39.7267C139.707 40.1306 140.597 40.776 141.232 41.6604C141.864 42.5449 142.181 43.5454 142.181 44.662C142.181 46.5284 141.563 47.977 140.325 49.0054C139.086 50.0361 137.291 50.5491 134.934 50.5491H125.203V30H134.612C136.793 30 138.459 30.4898 139.608 31.4718C140.757 32.4537 141.333 33.7328 141.333 35.3114C141.333 37.331 140.407 38.8051 138.558 39.7267ZM134.321 33.2035H129.149V38.573H134.321C135.315 38.573 136.079 38.3269 136.614 37.8371C137.15 37.3473 137.418 36.6671 137.418 35.8012C137.418 34.9934 137.145 34.3573 136.6 33.8953C136.055 33.4334 135.296 33.2035 134.321 33.2035ZM129.149 47.3177H134.73C135.839 47.3177 136.687 47.0717 137.272 46.5818C137.857 46.092 138.149 45.3933 138.149 44.4902C138.149 42.5844 137.009 41.6326 134.73 41.6326H129.149V47.32V47.3177Z" fill="#0B0B0B"></path><path d="M147.331 50.5537H143.648V35.6596H147.331V50.5537ZM147.303 33.7258H143.679V30.3203H147.303V33.7258Z" fill="#0B0B0B"></path><path d="M162.26 48.7588C160.858 50.1842 159.008 50.8945 156.71 50.8945C154.412 50.8945 152.56 50.1819 151.157 48.7588C149.735 47.3544 149.023 45.4671 149.023 43.1016C149.023 40.7361 149.735 38.8487 151.157 37.4443C152.56 36.0213 154.409 35.3086 156.71 35.3086C159.011 35.3086 160.86 36.012 162.26 37.4164C163.663 38.8209 164.364 40.7175 164.364 43.1039C164.364 45.4903 163.663 47.3381 162.26 48.7612V48.7588ZM153.831 46.651C154.522 47.4797 155.483 47.893 156.71 47.893C157.937 47.893 158.895 47.4751 159.589 46.6371C160.279 45.799 160.625 44.6221 160.625 43.1016C160.625 41.581 160.279 40.4018 159.589 39.5661C158.898 38.728 157.937 38.3102 156.71 38.3102C155.483 38.3102 154.522 38.7234 153.831 39.5521C153.14 40.3786 152.795 41.5625 152.795 43.1016C152.795 44.6407 153.14 45.8246 153.831 46.651Z" fill="#0B0B0B"></path><path d="M17.2784 42.7031L16 46.0227H26.2809L27.5592 42.7031H17.2784Z" fill="#0B0B0B"></path><path d="M26.5 50.5509H30.563L32.1703 46.0195H28.2483L26.5 50.5509Z" fill="#0B0B0B"></path><path d="M39.0413 30H34.4238L29.5312 42.7004H33.3687L33.6201 42.004L34.1606 40.4788C34.224 40.314 34.2851 40.1446 34.3486 39.9797L36.7032 33.4357L39.2223 40.3488C39.2387 40.393 39.2575 40.4371 39.274 40.4788L40.0918 42.7004H40.08L41.2902 46.0201L42.9257 50.5514H47.1039L39.0413 30Z" fill="#0B0B0B"></path></svg>