<svg xmlns="http://www.w3.org/2000/svg" fill="none" viewBox="10 21 160 37"><path fill-rule="evenodd" clip-rule="evenodd" d="M28.4819 58C29.3948 58 30.1339 57.2702 30.1339 56.3701C30.1339 55.47 29.3948 54.7401 28.4819 54.7401C27.5687 54.7401 26.8296 55.47 26.8296 56.3701C26.8296 57.2702 27.5687 58 28.4819 58ZM34.1441 49.157C35.0799 49.157 35.8397 49.9071 35.8397 50.8295C35.8397 51.754 35.082 52.502 34.1441 52.502C33.2062 52.502 32.4485 51.754 32.4485 50.8295C32.4485 49.9051 33.2083 49.157 34.1441 49.157ZM39.8064 51.6972C40.9782 51.6972 40.9782 49.9639 39.8064 49.9639C38.6346 49.9639 38.6346 51.6972 39.8064 51.6972ZM45.4688 43.4218C46.5163 43.4218 47.3652 44.2591 47.3652 45.293C47.3652 46.3249 46.5163 47.1621 45.4688 47.1621C44.4212 47.1621 43.5724 46.3269 43.5724 45.293C43.5724 44.2591 44.4212 43.4218 45.4688 43.4218ZM43.502 39.7525C43.502 40.8249 44.3818 41.6926 45.4688 41.6926C46.5557 41.6926 47.4356 40.8229 47.4356 39.7525C47.4356 38.682 46.5557 37.8124 45.4688 37.8124C44.3818 37.8124 43.502 38.6801 43.502 39.7525ZM44.1707 34.2138C44.1707 33.5064 44.7524 32.9326 45.4688 32.9326C46.1871 32.9326 46.7668 33.5064 46.7668 34.2138C46.7668 34.9215 46.1851 35.4951 45.4688 35.4951C44.7524 35.4951 44.1707 34.9215 44.1707 34.2138ZM45.4688 27.5807C43.9905 27.5807 43.9905 29.7661 45.4688 29.7661C46.947 29.7661 46.947 27.5807 45.4688 27.5807ZM39.8064 24.2702C40.4441 24.2702 40.9596 23.7613 40.9596 23.1328C40.9596 22.5042 40.442 21.9954 39.8064 21.9954C39.1708 21.9954 38.6532 22.5042 38.6532 23.1328C38.6532 23.7613 39.1688 24.2702 39.8064 24.2702ZM39.8064 27.6983C38.4897 27.6983 38.4897 29.6464 39.8064 29.6464C41.1231 29.6464 41.1231 27.6983 39.8064 27.6983ZM37.7734 34.2119C37.7734 35.3188 38.6843 36.2168 39.8064 36.2168C40.9285 36.2168 41.8415 35.3188 41.8415 34.2119C41.8415 33.105 40.9306 32.2068 39.8064 32.2068C38.6822 32.2068 37.7734 33.105 37.7734 34.2119ZM41.442 39.7525C41.442 40.6425 40.7091 41.3642 39.8064 41.3642C38.9058 41.3642 38.1729 40.6425 38.1729 39.7525C38.1729 38.8625 38.9038 38.1407 39.8064 38.1407C40.7091 38.1407 41.442 38.8625 41.442 39.7525ZM39.8064 46.0614C40.8478 46.0614 40.8478 44.5206 39.8064 44.5206C38.7651 44.5206 38.7651 46.0614 39.8064 46.0614ZM34.1441 22.3442C33.0779 22.3442 33.0779 23.9214 34.1441 23.9214C35.2103 23.9214 35.2103 22.3442 34.1441 22.3442ZM34.1441 30.7756C32.9652 30.7756 32.0096 29.8336 32.0096 28.6714C32.0096 27.5092 32.9652 26.567 34.1441 26.567C35.3229 26.567 36.2786 27.5092 36.2786 28.6714C36.2786 29.8336 35.3229 30.7756 34.1441 30.7756ZM36.173 34.2119C36.173 33.107 35.2642 32.2129 34.1441 32.2129C33.0241 32.2129 32.1173 33.109 32.1173 34.2119C32.1173 35.3148 33.0261 36.2107 34.1441 36.2107C35.2621 36.2107 36.173 35.3167 36.173 34.2119ZM34.1441 38.8402C32.9122 38.8402 32.9122 40.6647 34.1441 40.6647C35.3759 40.6647 35.3759 38.8402 34.1441 38.8402ZM35.9494 45.291C35.9494 44.3078 35.142 43.511 34.1441 43.511C33.1462 43.511 32.3409 44.3078 32.3409 45.291C32.3409 46.2742 33.1483 47.0709 34.1441 47.0709C35.1399 47.0709 35.9494 46.2742 35.9494 45.291ZM30.6432 23.1328C30.6432 21.955 29.6743 21 28.4819 21C27.2893 21 26.3183 21.955 26.3183 23.1328C26.3183 24.3106 27.2871 25.2656 28.4819 25.2656C29.6764 25.2656 30.6453 24.3106 30.6453 23.1328H30.6432ZM28.4819 26.8548C29.4983 26.8548 30.3223 27.6678 30.3223 28.6714C30.3223 29.6748 29.4983 30.4878 28.4819 30.4878C27.4652 30.4878 26.6412 29.6748 26.6412 28.6714C26.6412 27.6678 27.4652 26.8548 28.4819 26.8548ZM30.5335 34.2119C30.5335 33.0948 29.6143 32.1887 28.4819 32.1887C27.3492 32.1887 26.43 33.0948 26.43 34.2119C26.43 35.3289 27.3492 36.2351 28.4819 36.2351C29.6143 36.2351 30.5335 35.3289 30.5335 34.2119ZM28.4819 37.561C29.7074 37.561 30.7032 38.5402 30.7032 39.7504C30.7032 40.9587 29.7095 41.9399 28.4819 41.9399C27.254 41.9399 26.2603 40.9587 26.2603 39.7504C26.2603 38.5421 27.2562 37.561 28.4819 37.561ZM29.8295 45.291C29.8295 44.5571 29.227 43.9611 28.4819 43.9611C27.7365 43.9611 27.134 44.5571 27.134 45.291C27.134 46.0249 27.7365 46.6189 28.4819 46.6189C29.227 46.6189 29.8295 46.0249 29.8295 45.291ZM28.4819 49.5078C29.223 49.5078 29.8233 50.0997 29.8233 50.8316C29.8233 51.5634 29.223 52.1554 28.4819 52.1554C27.7406 52.1554 27.1402 51.5634 27.1402 50.8316C27.1402 50.0997 27.7406 49.5078 28.4819 49.5078ZM22.8194 25.1884C21.668 25.1884 20.7347 24.2681 20.7347 23.1328C20.7347 21.9975 21.668 21.0772 22.8194 21.0772C23.9709 21.0772 24.9043 21.9975 24.9043 23.1328C24.9043 24.2681 23.9709 25.1884 22.8194 25.1884ZM22.8194 29.6504C24.1402 29.6504 24.1402 27.6962 22.8194 27.6962C21.4985 27.6962 21.4985 29.6504 22.8194 29.6504ZM22.8194 35.9026C21.8716 35.9026 21.1031 35.1456 21.1031 34.2119C21.1031 33.2781 21.8716 32.5211 22.8194 32.5211C23.7673 32.5211 24.5357 33.2781 24.5357 34.2119C24.5357 35.1456 23.7673 35.9026 22.8194 35.9026ZM22.8194 41.4533C23.7738 41.4533 24.546 40.6911 24.546 39.7504C24.546 38.8099 23.7738 38.0494 22.8194 38.0494C21.865 38.0494 21.0928 38.8118 21.0928 39.7504C21.0928 40.6891 21.865 41.4533 22.8194 41.4533ZM22.8194 43.9874C23.5482 43.9874 24.1402 44.5712 24.1402 45.2909C24.1402 46.0106 23.5482 46.5945 22.8194 46.5945C22.0907 46.5945 21.4985 46.0106 21.4985 45.2909C21.4985 44.5712 22.0907 43.9874 22.8194 43.9874ZM24.7634 50.8315C24.7634 49.7733 23.8938 48.9137 22.8194 48.9137C21.7449 48.9137 20.8754 49.7713 20.8754 50.8315C20.8754 51.8918 21.7449 52.7493 22.8194 52.7493C23.8938 52.7493 24.7634 51.8918 24.7634 50.8315ZM22.8194 55.4497C21.5731 55.4497 21.5731 57.2925 22.8194 57.2925C24.0657 57.2925 24.0657 55.4497 22.8194 55.4497ZM15.389 28.6733C15.389 29.6352 16.1798 30.4148 17.155 30.4148C18.1304 30.4148 18.9211 29.6352 18.9211 28.6733C18.9211 27.7116 18.1304 26.932 17.155 26.932C16.1798 26.932 15.389 27.7116 15.389 28.6733ZM17.155 35.1221C18.3847 35.1221 18.3847 33.3036 17.155 33.3036C15.9252 33.3036 15.9252 35.1221 17.155 35.1221ZM18.2771 39.7504C18.2771 39.1401 17.774 38.6456 17.155 38.6456C16.5361 38.6456 16.033 39.1401 16.033 39.7504C16.033 40.3606 16.5361 40.8573 17.155 40.8573C17.774 40.8573 18.2771 40.3627 18.2771 39.7504ZM17.155 44.0725C17.8361 44.0725 18.389 44.6179 18.389 45.2909C18.389 45.9619 17.8361 46.5073 17.155 46.5073C16.4738 46.5073 15.9211 45.964 15.9211 45.2909C15.9211 44.6179 16.4738 44.0725 17.155 44.0725ZM15.2752 50.8295C15.2752 51.8529 16.1169 52.6825 17.155 52.6825C18.1932 52.6825 19.0349 51.8529 19.0349 50.8295C19.0349 49.8062 18.1932 48.9766 17.155 48.9766C16.1169 48.9766 15.2752 49.8062 15.2752 50.8295ZM11.4927 35.6836C10.6683 35.6836 10 35.0248 10 34.2119C10 33.3989 10.6683 32.7401 11.4927 32.7401C12.3171 32.7401 12.9854 33.3989 12.9854 34.2119C12.9854 35.0248 12.3171 35.6836 11.4927 35.6836ZM11.4927 38.8097C10.2174 38.8097 10.2174 40.6951 11.4927 40.6951C12.768 40.6951 12.768 38.8097 11.4927 38.8097ZM11.4927 44.3544C10.2258 44.3544 10.2258 46.2276 11.4927 46.2276C12.7598 46.2276 12.7598 44.3544 11.4927 44.3544Z" fill="#0B0B0B"></path><path d="M59.9277 48.3828H62.909V41.2444H68.5783C72.8059 41.2444 75.0541 39.018 75.0541 35.6439C75.0541 32.2699 72.8059 30.25 68.5783 30.25H59.9277V48.3828ZM62.909 38.5589V32.9125H67.8941C70.631 32.9125 71.9751 33.9684 71.9751 35.7357C71.9751 37.5031 70.6799 38.5589 68.0163 38.5589H62.909Z" fill="#0B0B0B"></path><path d="M77.3888 48.3828H80.1746V41.7494C80.1746 39.5918 82.3495 38.8573 85.2086 38.8573V36.3096C82.7161 36.3096 81.0055 37.1129 80.1746 38.7196V36.4473H77.3888V48.3828Z" fill="#0B0B0B"></path><path d="M92.6602 48.75C95.6903 48.75 97.963 47.0515 98.354 44.7792H95.4949C95.2749 45.6973 94.2241 46.5465 92.6602 46.5465C90.4853 46.5465 89.2634 45.2153 89.0924 43.2413H98.4517V42.2543C98.4517 38.3524 95.8614 36.08 92.6602 36.08C88.848 36.08 86.1355 38.6967 86.1355 42.3921C86.1355 46.1104 88.848 48.75 92.6602 48.75ZM89.0924 41.3821C89.3856 39.5918 90.5342 38.3983 92.5624 38.3983C94.3219 38.3983 95.4949 39.6377 95.5926 41.3821H89.0924Z" fill="#0B0B0B"></path><path d="M107.504 48.75C110.558 48.75 112.831 46.8679 113.222 44.3201H110.363C110.167 45.5366 109.019 46.4318 107.406 46.4318C105.353 46.4318 103.887 44.7792 103.887 42.3921C103.887 40.0279 105.353 38.3983 107.406 38.3983C108.97 38.3983 110.143 39.3164 110.363 40.5558H113.222C112.831 37.9851 110.534 36.08 107.504 36.08C103.667 36.08 100.979 38.6967 100.979 42.3921C100.979 46.1104 103.667 48.75 107.504 48.75Z" fill="#0B0B0B"></path><path d="M116.073 48.3828H118.932V36.4473H116.073V48.3828Z" fill="#0B0B0B"></path><path d="M127.749 48.75C131.219 48.75 133.345 47.304 133.345 45.0316C133.345 39.9132 125.11 42.4839 125.11 39.7754C125.11 38.7655 126.038 38.054 127.651 38.054C129.411 38.054 130.486 38.8803 130.559 40.2574H133.321C133.125 37.6867 131.048 36.08 127.871 36.08C124.377 36.08 122.251 37.6179 122.251 39.8902C122.251 44.871 130.486 42.2543 130.486 45.1005C130.486 46.0416 129.508 46.7761 127.847 46.7761C125.989 46.7761 124.743 45.9957 124.67 44.6414H121.884C121.957 47.1892 124.181 48.75 127.749 48.75Z" fill="#0B0B0B"></path><path d="M136.333 48.3828H139.192V36.4473H136.333V48.3828Z" fill="#0B0B0B"></path><path d="M148.718 48.75C152.555 48.75 155.292 46.1104 155.292 42.3921C155.292 38.6967 152.555 36.08 148.718 36.08C144.882 36.08 142.145 38.6967 142.145 42.3921C142.145 46.1104 144.882 48.75 148.718 48.75ZM148.718 46.4318C146.568 46.4318 145.053 44.7562 145.053 42.3921C145.053 40.0509 146.568 38.3983 148.718 38.3983C150.869 38.3983 152.408 40.0509 152.408 42.3921C152.408 44.7562 150.869 46.4318 148.718 46.4318Z" fill="#0B0B0B"></path><path d="M158.026 48.3828H160.909V42.415C160.909 40.0509 162.254 38.3983 164.355 38.3983C166.115 38.3983 167.092 39.5918 167.092 41.4969V48.3828H170V41.3821C170 37.8933 168.436 36.08 165.308 36.08C163.231 36.08 161.789 36.9981 160.909 38.3753V36.4473H158.026V48.3828Z" fill="#0B0B0B"></path><path fill-rule="evenodd" clip-rule="evenodd" d="M139.639 32.8581C139.639 31.8347 138.798 31.0051 137.759 31.0051C136.721 31.0051 135.88 31.8347 135.88 32.8581C135.88 33.8814 136.721 34.711 137.759 34.711C138.798 34.711 139.639 33.8814 139.639 32.8581Z" fill="#0B0B0B"></path><path fill-rule="evenodd" clip-rule="evenodd" d="M119.398 32.8581C119.398 31.8347 118.556 31.0051 117.518 31.0051C116.48 31.0051 115.638 31.8347 115.638 32.8581C115.638 33.8814 116.48 34.711 117.518 34.711C118.556 34.711 119.398 33.8814 119.398 32.8581Z" fill="#0B0B0B"></path></svg>