<svg xmlns="http://www.w3.org/2000/svg" viewBox="0 0 1351 293.06">  <path d="M328.5 12.9v66.6h43.2v48.3h-43.2v87.4c0 6.9 1.8 11.9 5.3 15 3.5 3 7.9 4.5 13.3 4.5a50 50 0 0 0 15-2.4c2.5-.8 22-4.6 41.4-8.5V80.3h59.7v43c7.3-14.3 16.8-25.5 28.3-33.6s23.8-12.3 36.8-12.6h6.5c1.3 0 2.7.1 4 .4V136a125 125 0 0 0-42.6 7.7 52 52 0 0 0-27.7 21.9V293h-65v-17.8l-1.2.3-45 12.6c-11.4 3.2-22.9 4.8-34.4 4.8-8.1 0-15.7-1-22.8-3a51 51 0 0 1-18.8-9.6 44.8 44.8 0 0 1-12.7-17.3c-3.1-7.2-4.7-15.9-4.7-26V127.8h-27V79.5h27V12.9zM140.1 119.7a343 343 0 0 1 37 12.2c11 4.5 20.4 10 28 16.5a66.6 66.6 0 0 1 17.7 23.9 82.6 82.6 0 0 1 6.3 33.7 76.2 76.2 0 0 1-33 67.6c-10 6.8-21.4 11.7-34.3 14.8a169.9 169.9 0 0 1-44.5 4.5l7.4-59.3c22.3-.3 33.5-7.4 33.5-21.2 0-5.4-1.7-9.8-5.2-13.3a49.3 49.3 0 0 0-14.5-9.4l-8-3.3 8.4-67 1.2.3zm507.2-45.2c18 0 34 3 48 8.9a101 101 0 0 1 57.4 58.5 115.4 115.4 0 0 1 7 52.3c-.3 3.6-.7 6.7-1.2 9.4H602c1.1 14.2 6.3 25 15.6 32.3 9.2 7.3 19.8 11 31.6 11 9.4 0 18.5-2.3 27.2-6.8a34.9 34.9 0 0 0 17.5-18.5l54.8 15.3a98.3 98.3 0 0 1-38.7 40.5 120.5 120.5 0 0 1-62.8 15.6c-17.8 0-33.7-2.9-47.8-8.6-14-5.8-26-13.6-35.8-23.5s-17.3-21.3-22.4-34.2-7.7-26.6-7.7-40.7c0-15.3 2.6-29.6 7.7-43.1a104.4 104.4 0 0 1 22.2-35.5 103.5 103.5 0 0 1 35.6-24c14.1-6 30.2-8.9 48.2-8.9zm563-74.5v117.6c8-12.6 18.3-22.3 31.2-29.1s27-10.2 42.4-10.2c14.4 0 26 2.4 34.8 7.4a55 55 0 0 1 20.3 18.9c4.8 7.6 8 16.1 9.6 25.6 1.6 9.5 2.4 18.8 2.4 28V293h-65V174.6c0-13.7-2.7-23.7-8.2-30.1s-12.8-9.6-22.3-9.6c-3.8 0-8 .8-12.4 2.6s-8.8 4.3-13 7.6c-4.2 3.3-8 7.3-11.6 11.8a51.7 51.7 0 0 0-8.1 15.3V293h-65v-64.4a284 284 0 0 1-55.6 48.8 117.5 117.5 0 0 1-62.3 15.6 115.2 115.2 0 0 1-73-23.6c-24 6.9-60.6 16.6-68.7 18.8-11.4 3.2-23 4.8-34.5 4.8-8 0-15.7-1-22.8-3s-13.4-5.2-18.8-9.6c-5.4-4.4-9.6-10.1-12.7-17.3s-4.6-15.9-4.6-26V127.8h-27V79.5h27V12.9h64.5v66.6h43.2v48.3H857v87.4c0 6.9 1.8 11.9 5.3 15 3.5 3 8 4.5 13.3 4.5a50 50 0 0 0 15-2.4l30.4-8.6a114.2 114.2 0 0 1-7.2-40.1c0-14.5 2.5-28.3 7.6-41.5a103.1 103.1 0 0 1 58-58.7c14-6 30.1-8.9 48.2-8.9 24.4 0 45 5.2 61.7 15.5a99.2 99.2 0 0 1 37.5 40.3l-63 18.8a40.6 40.6 0 0 0-36.6-20c-13.5 0-24.7 4.9-33.7 14.8a56.6 56.6 0 0 0-13.5 39.7c0 8.3 1.2 15.8 3.6 22.6s5.8 12.6 10 17.5a46 46 0 0 0 33.6 15.2c8 0 15.4-2 22.2-5.8a37.4 37.4 0 0 0 14.9-15h81.2V0zM29 200.3c1 1.4 4.5 4 10.5 7.7a157 157 0 0 0 21.9 11.2c8.7 3.7 18.4 7 29.2 10l.5.2-7.5 60.2a232.4 232.4 0 0 1-56.4-17c-9.8-4.3-18.9-9.3-27.2-14.9zM117.6 2.6h1.7L112 61.2c-21.3.8-31.9 8.6-31.9 23.6 0 4.8 1.3 8.8 3.8 12s6.3 6.1 11.3 8.7c3 1.5 6.7 3 10.7 4.5l-8.2 66.4L89 174c-13.2-4-24.6-8.4-34.2-13s-17.7-10.2-24-16.3a59 59 0 0 1-14-21.3 78 78 0 0 1-4.7-28c0-15 2.8-28.3 8.4-39.8a85.8 85.8 0 0 1 23-29A100 100 0 0 1 77 8.4c12.7-4 26.2-6 40.5-6zm526.7 118.2a43 43 0 0 0-31.3 12c-8.2 7.9-13 18.5-14.3 31.7h91.1v-.7a48.4 48.4 0 0 0-14.5-31.3 43.6 43.6 0 0 0-31-11.7zM174.7 12.6c8.9 3 17.1 6.3 24.8 10 7.6 3.8 14.7 7.5 21.1 11.3l-29 54.5c-.8-1-3.6-3-8.4-6A159.6 159.6 0 0 0 145.5 66l7.4-59.4c7.5 1.7 14.8 3.7 21.8 6z" fill="#000"></path></svg>